<svg width="200" height="200" viewBox="0 0 200 200" fill="none" xmlns="http://www.w3.org/2000/svg">
<g clip-path="url(#clip0_188_1821)">
<path d="M123.877 86.4942L123.877 86.4942L197.227 99.9926L123.87 113.498C118.843 114.421 116.681 115.065 115.731 115.464L115.542 115.543L115.463 115.732C115.064 116.689 114.428 118.843 113.502 123.877L99.9962 197.235L86.4905 123.877L86.4904 123.877C85.5642 118.851 84.9242 116.688 84.5251 115.738L84.4465 115.551L84.2599 115.472C83.3197 115.072 81.1408 114.428 76.1188 113.506L2.76113 99.9999L76.1228 86.4905L76.1228 86.4904C81.1495 85.5642 83.3116 84.9242 84.2616 84.5251L84.4495 84.4461L84.5287 84.2583C84.9243 83.3192 85.568 81.1417 86.4942 76.1191L86.4942 76.119L100 2.7615L113.506 76.1225C113.506 76.1226 113.506 76.1227 113.506 76.1227C114.428 81.15 115.072 83.3118 115.471 84.2616L115.55 84.4486L115.736 84.528C116.677 84.9281 118.856 85.5682 123.877 86.4942Z" stroke="#272727"/>
</g>
<defs>
<clipPath id="clip0_188_1821">
<rect width="200" height="200" fill="white"/>
</clipPath>
</defs>
</svg>
