<svg width="100" height="100" viewBox="0 0 100 100" fill="none" xmlns="http://www.w3.org/2000/svg">
<g clip-path="url(#clip0_180_1095)">
<path d="M8.87673 41.8719L9.94216 42.1128C10.0957 43.3644 10.1414 44.7621 10.082 46.2942L8.93762 46.1815C9.05086 44.5764 9.02755 43.1351 8.87673 41.8719ZM0 42.2139L0.665356 41.2568C1.94168 42.1295 2.94337 42.9645 3.6965 43.7554C3.7515 43.3054 3.78309 42.8501 3.812 42.4063C3.44143 42.0913 3.05012 41.7595 2.6354 41.4223L3.24955 40.5267C4.91578 41.95 6.10169 43.1065 6.81265 43.9731C6.8022 43.1675 6.74491 42.3514 6.63176 41.5104L7.65036 41.7407C7.82389 43.1186 7.85594 44.4158 7.75187 45.6092L6.66627 45.668C6.61817 45.4503 6.55031 45.2646 6.45368 45.0967C6.14405 44.6251 5.56315 43.9948 4.7227 43.2085C4.67066 43.8052 4.61326 44.4251 4.56489 45.0591L3.47027 45.1037C3.4429 44.9028 3.33724 44.7207 3.15866 44.5343C2.24161 43.7064 1.18873 42.9329 0 42.2139ZM7.72088 35.4285L12.767 36.5693L12.5178 37.6447L12.0495 37.5388L11.2857 40.8345L11.754 40.9403L11.5048 42.0158L6.45866 40.875L7.72088 35.4285ZM10.232 40.5963L10.9958 37.3006L8.52538 36.7421L7.76161 40.0378L10.232 40.5963ZM2.46803 38.476L2.03926 40.3261L0.985535 40.0879L2.38443 34.0517C4.66481 34.5794 6.00249 35.0278 6.39746 35.397C6.77805 35.7751 6.89331 36.288 6.74055 36.9471C6.6816 37.2015 6.59118 37.4853 6.48737 37.8269L5.44226 37.8705C5.55143 37.5058 5.64453 37.2104 5.72422 36.9729C5.80899 36.5539 5.71842 36.2536 5.44081 36.0691C5.17223 35.8989 4.42729 35.6574 3.1916 35.3537L2.71458 37.4121C3.60566 37.8204 4.28431 38.2416 4.77126 38.6924C5.32775 39.2685 5.78015 40.0279 6.12577 40.9823L5.08955 41.466C4.83154 40.6653 4.48649 40.0275 4.05441 39.5526C3.66748 39.1487 3.133 38.7967 2.46803 38.476Z" fill="#C3C3C3"/>
<path d="M7.69627 33.6676L10.8579 27.8714C9.85117 26.3655 8.63861 24.9118 7.22592 23.4999L8.13149 22.7151C9.5466 24.2227 10.638 25.5984 11.4276 26.8271L12.8916 24.1431L13.8644 24.6607L8.66907 34.1853L7.69627 33.6676ZM4.48388 29.9775C5.69352 29.9609 6.98123 30.0262 8.35272 30.1631L8.30527 31.3506C6.91346 31.176 5.61517 31.105 4.42098 31.1433L4.48388 29.9775ZM5.22234 27.123C6.48972 27.1506 7.83518 27.2601 9.26442 27.4412L9.22836 28.6078C7.77798 28.4155 6.41625 28.3108 5.16432 28.3049L5.22234 27.123ZM10.5968 31.6267L11.5308 30.9649C12.3594 32.3221 12.9505 33.7146 13.3089 35.1584L12.2667 35.6684C11.9392 34.2679 11.3896 32.9244 10.5968 31.6267ZM12.7265 27.5722C14.4487 27.1411 15.8756 26.8762 17.0292 26.7624L17.1737 27.9981C15.9299 28.0774 14.477 28.3149 12.8044 28.705L12.7265 27.5722Z" fill="#C3C3C3"/>
<path d="M11.2471 20.7691L14.5796 17.3018C13.9464 17.1335 13.2898 17.0413 12.601 17.017L13.0817 15.9138C13.7975 15.9961 14.5752 16.1692 15.4065 16.4415L18.5405 13.1808L19.3593 13.9485L18.0941 15.2648C19.0213 16.9192 19.5404 18.5673 19.6604 20.2173C21.2608 20.0167 22.9543 19.4782 24.7155 18.6106L24.9741 19.72C23.1201 20.6151 21.3587 21.1554 19.6982 21.3323C19.6349 23.1213 19.1301 24.9215 18.1838 26.7331L17.0303 26.4859C18.0041 24.7491 18.529 23.0658 18.6128 21.4106C16.745 21.4585 14.9759 21.0593 13.3311 20.2205L12.0659 21.5368L11.2471 20.7691ZM14.0836 19.4375C15.5023 20.0808 17.0054 20.3778 18.5924 20.3118C18.4869 18.8881 18.0506 17.4812 17.2838 16.108L14.0836 19.4375Z" fill="#C3C3C3"/>
<path d="M23.2583 8.22508L28.4527 5.10899L31.4331 9.95547L29.3286 11.2179L29.9521 12.2318L32.19 10.8893L32.7387 11.7816L30.5008 13.1241L31.1493 14.1785L33.7465 12.6205L34.3139 13.5431L28.1032 17.2689L27.5358 16.3462L30.1843 14.7574L29.5359 13.7029L27.2877 15.0516L26.739 14.1594L28.9872 12.8107L28.3637 11.7968L26.2387 13.0716L23.2583 8.22508ZM29.9751 9.66419L29.2643 8.50833L28.0941 9.21038L28.8049 10.3662L29.9751 9.66419ZM27.8399 10.9451L27.1291 9.78926L25.9383 10.5036L26.6491 11.6595L27.8399 10.9451ZM25.427 9.67221L26.6178 8.95785L25.907 7.802L24.7162 8.51636L25.427 9.67221ZM26.872 7.22312L27.5828 8.37897L28.7531 7.67693L28.0423 6.52107L26.872 7.22312ZM21.768 13.6854L22.7843 13.0758L21.45 10.906L20.2797 11.6081L19.7186 10.6955L23.0343 8.70641L23.5955 9.61893L22.4355 10.3148L23.7698 12.4846L24.8066 11.8626L25.374 12.7852L24.3372 13.4072L25.5842 15.4351C25.8584 15.104 26.1224 14.7791 26.3636 14.4401L26.9372 15.3729C26.2172 16.3045 25.4045 17.2223 24.4825 18.1224L23.679 17.3414C24.0665 17.0117 24.4313 16.668 24.7796 16.3203L23.3517 13.9984L22.3354 14.6081L21.768 13.6854Z" fill="#C3C3C3"/>
<path d="M42.0017 2.79986L42.8048 5.55889L41.7082 5.87028L41.2071 4.14873L33.3924 6.36776L33.8935 8.08931L32.8084 8.39741L32.0053 5.63838L34.0831 5.04839C33.5345 4.53763 32.9943 4.09854 32.4624 3.73115L33.3158 2.97042C33.8609 3.38342 34.4259 3.86483 34.9811 4.3984L34.3486 4.973L38.6773 3.74385C38.9448 2.9026 39.1265 2.02402 39.2338 1.10482L40.4845 1.19403C40.3193 2.04326 40.1209 2.77848 39.8778 3.40297L42.0017 2.79986ZM34.3979 6.85986L40.6428 5.0866L40.9216 6.04428C40.3304 6.71822 39.6518 7.3923 38.8775 8.0812L38.9937 8.48023L43.2993 7.25764L43.598 8.28372L39.2924 9.50632L39.8001 11.2507C39.9959 11.9233 39.7261 12.3702 38.9989 12.5767L37.5329 12.993L36.982 12.0879C37.4009 11.9813 37.8544 11.8649 38.3507 11.7239C38.5931 11.6551 38.677 11.4708 38.594 11.1858L38.1958 9.8177L33.6362 11.1124L33.3375 10.0863L37.8971 8.79162L37.6449 7.92515C38.3533 7.35367 38.925 6.87042 39.3401 6.49333L34.6767 7.81754L34.3979 6.85986ZM36.0082 1.95902C36.5518 2.4095 37.1003 2.92027 37.6424 3.49459L36.804 4.26344C36.2552 3.66632 35.7066 3.15555 35.1549 2.71975L36.0082 1.95902Z" fill="#C3C3C3"/>
<path d="M54.9867 1.00117L55.013 3.57526L54.0642 3.5847L54.0713 4.28457L49.4834 4.33024L49.4763 3.63037L48.5035 3.64005L48.4772 1.06596L51.0954 1.0399C50.9722 0.732677 50.8493 0.461043 50.7025 0.20151L51.8776 0C52.0128 0.307102 52.1364 0.649909 52.2604 1.0283L54.9867 1.00117ZM49.6053 3.32064L53.9169 3.27772L53.9047 2.07964L49.593 2.12256L49.6053 3.32064ZM48.5818 5.43064L55.1273 5.36549L55.1382 6.43309L53.2286 6.45209L53.2583 9.35833C53.2613 9.65488 53.3589 9.80813 53.5511 9.80622L53.9234 9.80251C54.0195 9.80156 54.1031 9.75327 54.1624 9.6815C54.2455 9.58577 54.3006 9.09882 54.3277 8.22066L55.3642 8.56625C55.2792 9.65852 55.1658 10.3121 55.0117 10.5153C54.8454 10.695 54.5701 10.7926 54.1619 10.8085L53.2011 10.8181C52.8528 10.8216 52.5994 10.7054 52.4289 10.4817C52.2343 10.2464 52.1354 9.96267 52.132 9.63053L52.0997 6.46333L51.2229 6.47206C51.1389 7.65923 50.9558 8.55081 50.6495 9.13516C50.2724 9.85072 49.6302 10.474 48.7227 11.005L47.9807 10.0871C48.7452 9.6761 49.2927 9.18426 49.6233 8.62339C49.8828 8.15813 50.0437 7.44473 50.106 6.48317L48.5927 6.49824L48.5818 5.43064ZM44.5681 0.535425L48.1952 0.499324L48.2041 1.37712C47.9023 2.40038 47.541 3.48354 47.1201 4.61475C47.7917 5.68764 48.1616 6.63302 48.218 7.45104C48.2237 8.00856 48.1077 8.41307 47.8941 8.66432C47.573 8.97597 47.0101 9.13579 46.1935 9.15579L45.8094 8.00886C46.0501 8.05392 46.2666 8.07549 46.4347 8.07382C46.6987 8.04746 46.8902 7.98624 46.9856 7.91411C47.0687 7.81838 47.1153 7.67555 47.1131 7.46203C47.105 6.66727 46.7356 5.78119 46.0168 4.79182C46.4731 3.60094 46.8344 2.51778 47.089 1.56617L45.6838 1.58016L45.7807 11.0818L44.6758 11.0928L44.5681 0.535425Z" fill="#C3C3C3"/>
<path d="M62.0899 6.16114C62.334 6.22415 62.5219 6.35849 62.6359 6.58413C62.7677 6.78982 62.809 7.00893 62.7422 7.26142C62.6814 7.49097 62.5338 7.67355 62.3139 7.8007C62.1057 7.93085 61.8722 7.96866 61.6282 7.90565C61.3725 7.83964 61.1993 7.69682 61.0822 7.48266C60.9418 7.2625 60.9152 7.03491 60.9759 6.80537C61.0428 6.55287 61.1757 6.37876 61.4042 6.26609C61.6155 6.12446 61.8343 6.09513 62.0899 6.16114Z" fill="#C3C3C3"/>
<path d="M70.9061 5.39594L73.142 6.67205C73.1871 6.28675 73.2037 5.92634 73.1876 5.57459L74.3237 6.00379C74.295 6.38475 74.2319 6.80086 74.1507 7.24778L76.1578 8.3933C76.5061 8.15366 76.8352 7.87566 77.1287 7.56365L78.1113 8.30259C77.8314 8.56757 77.5324 8.79421 77.2081 8.99278L79.3712 10.2273L78.8544 11.1107L75.121 8.97986L74.6643 9.76046L77.8465 11.5767L77.3537 12.4189L74.1715 10.6027L73.7088 11.3936L77.7853 13.7202L77.2565 14.6241L68.1051 9.40098L68.6339 8.49712L72.7105 10.8238L73.1732 10.0329L70.0222 8.23449L70.515 7.39225L73.666 9.19067L74.1227 8.41006L70.3893 6.27926L70.9061 5.39594ZM72.1402 11.9643L73.0785 12.6369C72.9331 12.8142 72.7773 12.9856 72.6172 13.1408L76.5169 15.3666L75.9761 16.291L72.5443 14.3323C72.7827 15.5371 73.7849 16.8352 75.5509 18.2268L74.4901 18.8544C72.5171 17.1529 71.5179 15.5413 71.4882 14.0036C71.0534 14.2487 70.6072 14.4187 70.1329 14.518C69.098 14.7219 67.6257 14.5119 65.6951 13.8758L65.8484 12.6891C67.4753 13.2751 68.7628 13.5167 69.7064 13.3976C70.0105 13.352 70.2731 13.2826 70.5268 13.1808L67.2926 11.3349L67.8335 10.4105L71.5772 12.5473C71.7822 12.3629 71.9664 12.1666 72.1402 11.9643Z" fill="#C3C3C3"/>
<path d="M80.7895 13.3144L83.9949 16.5234L85.97 14.5989L86.7629 15.3927L84.7878 17.3172L88.0016 20.5347L87.2235 21.2929L84.7436 18.8101C83.9496 20.6502 83.6721 22.7203 83.9111 25.0203L82.6873 25.1464C82.5438 22.5366 82.9675 20.1907 83.9669 18.117L78.871 23.0825L78.0781 22.2886L83.1569 17.3399C80.8311 18.3896 78.3997 18.7425 75.8711 18.39L76.1593 17.2427C78.348 17.6097 80.4643 17.3806 82.4829 16.5468L80.0114 14.0725L80.7895 13.3144ZM88.1293 16.7775C88.0971 17.7588 88.0236 18.5636 87.9089 19.1919L86.8061 19C86.9637 18.3132 87.0542 17.4918 87.1117 16.5359L88.1293 16.7775Z" fill="#C3C3C3"/>
<path d="M94.9424 31.2556L92.4098 32.6645L91.8499 31.6825L93.4301 30.8035L89.4397 23.806L87.8595 24.685L87.3054 23.7134L89.838 22.3046L90.8989 24.1651C91.2754 23.52 91.5832 22.8994 91.8224 22.3035L92.7688 22.9479C92.4878 23.5671 92.144 24.2213 91.7466 24.878L91.0345 24.4028L93.2448 28.2788C94.1353 28.3417 95.0428 28.3134 95.9731 28.2043L96.174 29.4268C95.2992 29.4642 94.5292 29.4433 93.8578 29.3538L94.9424 31.2556ZM89.1871 24.8859L92.3759 30.4777L91.4968 30.9667C90.6964 30.5542 89.8757 30.0578 89.0183 29.4728L88.652 29.6765L90.8505 33.5319L89.9087 34.0558L87.7101 30.2005L86.109 31.0912C85.4915 31.4347 84.989 31.2785 84.6177 30.6274L83.8691 29.3147L84.6335 28.5763C84.8352 28.9542 85.0546 29.3632 85.3081 29.8076C85.4319 30.0247 85.6328 30.0627 85.8944 29.9171L87.1502 29.2185L84.822 25.1358L85.7638 24.6119L88.092 28.6946L88.8874 28.2522C89.6139 28.801 90.222 29.2388 90.6893 29.5507L88.308 25.3749L89.1871 24.8859ZM94.3868 25.3018C94.0686 25.9281 93.6921 26.5733 93.2514 27.2268L92.3004 26.5986C92.762 25.9334 93.1385 25.2883 93.4404 24.6574L94.3868 25.3018Z" fill="#C3C3C3"/>
<path d="M99.7417 43.2475L97.2139 43.8749L96.9827 42.9659L96.2954 43.1365L95.1774 38.7415L95.8646 38.571L95.6275 37.6391L98.1553 37.0117L98.7934 39.5199C99.067 39.3297 99.3056 39.1481 99.5268 38.9465L100 40.0277C99.7293 40.2294 99.4208 40.4283 99.0773 40.6359L99.7417 43.2475ZM96.1997 38.6224L97.2504 42.7527L98.427 42.4607L97.3762 38.3304L96.1997 38.6224ZM93.8832 38.1331L95.4784 44.4034L94.43 44.6636L93.9646 42.8343L91.1107 43.5425C90.8195 43.6148 90.6915 43.7444 90.7383 43.9285L90.829 44.2851C90.8524 44.3772 90.9195 44.4461 91.004 44.4863C91.1177 44.5437 91.61 44.4827 92.4807 44.3033L92.383 45.3795C91.2879 45.5534 90.6179 45.5974 90.3819 45.4969C90.1662 45.3792 90.0056 45.1377 89.8945 44.7495L89.6603 43.829C89.5755 43.4954 89.6305 43.2249 89.8108 43.0089C89.997 42.767 90.2531 42.6056 90.5793 42.5246L93.6895 41.7528L93.4758 40.9129C92.2875 41.1099 91.3671 41.1427 90.7202 40.9852C89.9276 40.7905 89.1638 40.3195 88.4288 39.5723L89.1589 38.645C89.7423 39.2831 90.3545 39.6938 90.9839 39.88C91.5026 40.0204 92.2425 40.008 93.2036 39.8429L92.8349 38.3933L93.8832 38.1331ZM97.7632 33.1338L98.6471 36.6084L97.7851 36.8223C96.7073 36.7718 95.5565 36.6782 94.3445 36.5386C93.4454 37.4345 92.6013 38.0109 91.8093 38.2564C91.2618 38.3922 90.8365 38.3755 90.5392 38.2291C90.1573 37.9936 89.8683 37.4904 89.6576 36.711L90.6968 36.0739C90.7087 36.3156 90.7381 36.5285 90.7791 36.6895C90.8668 36.9369 90.9719 37.1065 91.0652 37.1812C91.1788 37.2386 91.3303 37.2499 91.54 37.1979C92.3205 37.0042 93.1063 36.4422 93.9121 35.5206C95.1912 35.6802 96.3419 35.7738 97.3382 35.7957L96.9958 34.4496L87.6652 36.7651L87.3959 35.7066L97.7632 33.1338Z" fill="#C3C3C3"/>
<path d="M96.3058 51.0482C96.3005 51.2973 96.212 51.5091 96.0164 51.6712C95.8445 51.8456 95.6384 51.9363 95.3742 51.9309C95.1341 51.926 94.9199 51.8267 94.7435 51.6451C94.5669 51.4754 94.4753 51.2599 94.4805 51.0109C94.486 50.7499 94.5863 50.5503 94.7699 50.3879C94.954 50.2018 95.1719 50.1232 95.4121 50.1282C95.6762 50.1336 95.8786 50.2208 96.0428 50.414C96.2314 50.584 96.3112 50.7873 96.3058 51.0482Z" fill="#C3C3C3"/>
<path d="M90.6807 60.936L90.2894 60.8206C90.2025 59.5322 90.2478 58.0971 90.4182 56.5379L90.8382 56.5998C90.6391 58.2124 90.5904 59.6589 90.6807 60.936ZM99.6836 61.548L99.4091 61.8756C97.8936 60.7106 96.7659 59.6725 96.033 58.7383C95.9154 59.4588 95.829 60.2009 95.7771 60.9532C96.1653 61.3276 96.5616 61.7168 96.9808 62.1128L96.7247 62.4211C94.7676 60.5193 93.5013 59.0688 92.8995 58.0743C92.7871 59.1925 92.7621 60.3117 92.828 61.4206L92.4597 61.312C92.3901 59.9668 92.4401 58.6816 92.6064 57.4679L93.0172 57.4776C93.0196 57.5526 93.045 57.6343 93.0773 57.6934C93.5086 58.4643 94.2956 59.4268 95.443 60.607C95.5224 59.7638 95.6111 58.9729 95.7389 58.2183L96.1347 58.2359C96.1405 58.2996 96.1809 58.3734 96.2443 58.4539C97.1258 59.5186 98.2799 60.5522 99.6836 61.548ZM91.4828 67.115L86.9368 65.7745L87.0536 65.388L87.7441 65.5916L88.9364 61.6473L88.2459 61.4437L88.3593 61.0685L92.9053 62.409L91.4828 67.115ZM89.3277 61.7627L88.1354 65.707L91.2083 66.6131L92.4006 62.6688L89.3277 61.7627ZM97.3579 65.3438L98.0073 63.1955L98.3756 63.3041L96.7091 68.8171C94.6755 68.205 93.4899 67.7316 93.1524 67.3969C92.8298 67.0541 92.7361 66.6179 92.8976 66.0837C92.9732 65.8336 93.0706 65.5528 93.1736 65.2118L93.5809 65.2329C93.4548 65.5671 93.354 65.8593 93.2853 66.0866C93.1537 66.6049 93.2531 66.9809 93.5801 67.2259C93.9106 67.4595 94.8763 67.8309 96.4577 68.322L97.2411 65.7303C96.2672 65.2203 95.521 64.7031 95.029 64.1743C94.5347 63.5704 94.1563 62.7903 93.8973 61.8226L94.2721 61.6607C94.5023 62.5581 94.8484 63.2791 95.284 63.8285C95.7656 64.3915 96.4508 64.903 97.3579 65.3438Z" fill="#C3C3C3"/>
<path d="M91.3173 69.0564L87.7402 74.7242C88.6614 76.3817 89.8078 77.9961 91.1835 79.584L90.868 79.8371C89.37 78.062 88.2477 76.4764 87.5114 75.0866L85.6244 78.0765L85.2778 77.8631L90.9707 68.843L91.3173 69.0564ZM94.7374 72.6299C93.4795 72.5823 92.1654 72.4443 90.7953 72.2157L90.8355 71.7932C92.263 72.043 93.577 72.1811 94.7815 72.2237L94.7374 72.6299ZM93.735 75.4515C92.4388 75.3524 91.0903 75.1792 89.6819 74.8992L89.7158 74.4867C91.1777 74.7717 92.5364 74.9512 93.7854 75.0352L93.735 75.4515ZM88.3382 71.2202L87.9883 71.4381C87.2609 70.0118 86.7856 68.5449 86.5393 67.0513L86.9109 66.8887C87.1367 68.3697 87.6083 69.8202 88.3382 71.2202ZM86.2618 74.5549C84.4722 74.8789 82.9777 75.0491 81.7785 75.0656L81.7487 74.6419C83.0282 74.6328 84.5328 74.4689 86.2563 74.16L86.2618 74.5549Z" fill="#C3C3C3"/>
<path d="M86.8985 81.7625L83.0786 85.2483C83.831 85.5631 84.6132 85.7699 85.4415 85.8862L85.2475 86.2732C84.4789 86.1509 83.6472 85.9085 82.7611 85.5381L79.3647 88.6375L79.0876 88.3413L80.5167 87.0371C79.5633 85.1615 79.0933 83.313 79.123 81.5093C77.3287 81.5316 75.4504 81.9536 73.4718 82.7578L73.3943 82.3602C75.4414 81.5419 77.3448 81.1293 79.1303 81.115C79.2332 79.1799 79.8535 77.2733 80.9999 75.3872L81.4032 75.5037C80.2317 77.3804 79.6046 79.2447 79.5132 81.1048C81.5689 81.1347 83.4761 81.6877 85.2363 82.7302L86.6213 81.4663L86.8985 81.7625ZM84.9276 83.0119C83.2414 82.0311 81.4258 81.5237 79.5059 81.4991C79.4864 83.2612 79.9176 85.0158 80.8255 86.7554L84.9276 83.0119Z" fill="#C3C3C3"/>
<path d="M74.083 93.5647L69.161 96.0954L66.7429 91.5077L69.0227 90.3355L68.1908 88.7571L65.6553 90.0608L65.4722 89.7136L68.0078 88.4099L67.0539 86.6L64.1028 88.1174L63.9198 87.7701L70.2587 84.5109L70.4417 84.8581L67.4161 86.4138L68.37 88.2236L70.9056 86.9199L71.0886 87.2672L68.553 88.5709L69.385 90.1492L71.6648 88.977L74.083 93.5647ZM67.2826 91.6582L68.2199 93.4364L70.1375 92.4504L69.2002 90.6722L67.2826 91.6582ZM69.5624 90.4859L70.4997 92.2642L72.428 91.2727L71.4907 89.4945L69.5624 90.4859ZM72.6 91.5989L70.6717 92.5904L71.6256 94.4002L73.5539 93.4088L72.6 91.5989ZM71.2634 94.5865L70.3094 92.7766L68.3918 93.7626L69.3457 95.5725L71.2634 94.5865ZM76.1136 88.0403L74.7606 88.736L76.2802 91.6191L77.7717 90.8522L77.9547 91.1995L74.6201 92.914L74.4371 92.5668L75.918 91.8054L74.3983 88.9223L73.0453 89.6179L72.8568 89.2602L74.2098 88.5645L72.6957 85.6919C72.3157 86.1013 71.9412 86.5212 71.5991 86.9512L71.4105 86.5934C72.1688 85.6686 73.0563 84.7576 74.0627 83.8924L74.3254 84.1853C73.8537 84.5749 73.4144 84.9746 72.9969 85.3899L74.572 88.3783L75.925 87.6826L76.1136 88.0403Z" fill="#C3C3C3"/>
<path d="M55.6615 97.5168L55.1706 95.2671L55.5698 95.1821L55.9772 97.0491L64.7127 95.1899L64.3053 93.3228L64.7045 93.2379L65.1954 95.4876L58.5499 96.902C58.1348 97.8156 57.8147 98.7696 57.6061 99.7848L57.1883 99.7281C57.4337 98.6565 57.738 97.7423 58.0919 96.9995L55.6615 97.5168ZM63.1737 94.0491L56.8804 95.3886L56.802 95.0291C57.5192 94.3182 58.3497 93.6196 59.2884 92.9101L59.0936 92.0172L54.444 93.0068L54.358 92.6125L59.0076 91.6229L58.5167 89.3732C58.4028 88.8513 58.6147 88.5272 59.1313 88.4172L60.6107 88.1023L60.7881 88.465C60.3537 88.5575 59.8815 88.6458 59.3649 88.7558C59.0009 88.8333 58.8536 89.0588 58.9345 89.4299L59.395 91.5405L64.3498 90.4859L64.4359 90.8802L59.481 91.9347L59.7189 93.0248C58.5983 93.8579 57.8256 94.4835 57.4008 94.9016L63.0953 93.6896L63.1737 94.0491ZM64.5073 98.1339C63.9254 97.6631 63.3661 97.1269 62.8176 96.5276L63.1436 96.2762C63.6972 96.8986 64.2682 97.4324 64.8358 97.8941L64.5073 98.1339ZM61.6502 98.9483C61.1194 98.4302 60.602 97.8608 60.1097 97.2375L60.4215 96.9769C60.9356 97.6442 61.453 98.2136 61.9762 98.6969L61.6502 98.9483Z" fill="#C3C3C3"/>
<path d="M42.5338 98.5519L42.6543 96.4081L43.062 96.4304L42.9642 98.1715L48.2528 98.4613L48.3506 96.7202L48.7584 96.7425L48.6379 98.8864L45.7598 98.7287C45.8791 99.1748 46.0243 99.5867 46.1963 99.9526L45.7605 100C45.6139 99.6118 45.4813 99.1887 45.34 98.7057L42.5338 98.5519ZM47.9968 96.5939L43.4398 96.3442L43.4604 95.977L48.0175 96.2267L47.9968 96.5939ZM48.9547 94.5316L42.5868 94.1826L42.6094 93.7799L44.768 93.8982L44.977 90.179C44.9949 89.8592 44.8483 89.6848 44.5245 89.6671L43.817 89.6283C43.5772 89.6152 43.4066 89.6533 43.3067 89.7192C43.0955 89.8383 42.9436 90.4002 42.8391 91.4044L42.4507 91.2524C42.5659 90.2726 42.7197 89.6751 42.9242 89.4606C43.1021 89.2921 43.3713 89.2118 43.743 89.2322L44.6544 89.2821C44.8943 89.2953 45.0815 89.3887 45.2174 89.5387C45.3534 89.6887 45.4027 89.8815 45.39 90.1066L45.1758 93.9205L46.6868 94.0033C46.8333 92.6807 47.1164 91.7101 47.5361 91.0915C47.9944 90.4275 48.7232 89.8734 49.7339 89.4417L49.9677 89.7752C49.031 90.1754 48.3408 90.6841 47.8985 91.2777C47.5048 91.862 47.237 92.7741 47.0946 94.0257L48.9774 94.1288L48.9547 94.5316ZM52.4522 99.7251L49.2383 99.549L49.2569 99.2174C49.6579 98.075 50.1442 96.9135 50.6924 95.7198C50.0387 94.7216 49.7069 93.7767 49.7088 92.8858C49.7481 92.4008 49.8999 92.0527 50.1531 91.8289C50.4915 91.5861 51.0625 91.4867 51.8546 91.5182L51.9753 91.9407C51.88 91.9236 51.8087 91.9078 51.7368 91.9038C51.1112 91.9052 50.6981 91.9776 50.4736 92.1198C50.2604 92.2744 50.1378 92.5291 50.1165 92.9081C50.0713 93.7135 50.4038 94.6466 51.1154 95.6836C50.5139 96.9694 50.0396 98.1315 49.692 99.1818L52.0664 99.3119L52.616 89.5283L53.0238 89.5506L52.4522 99.7251Z" fill="#C3C3C3"/>
<path d="M35.5706 93.2035C35.3657 93.1355 35.2065 93.0075 35.1122 92.8009C35.0025 92.6018 34.9841 92.3954 35.0569 92.1818C35.1258 91.9794 35.2667 91.826 35.4797 91.7215C35.6775 91.6245 35.8864 91.6063 36.0914 91.6744C36.3077 91.7462 36.463 91.8854 36.5498 92.077C36.6556 92.2873 36.674 92.4937 36.6051 92.6961C36.5324 92.9097 36.3914 93.0632 36.1823 93.1564C35.992 93.2684 35.7869 93.2754 35.5706 93.2035Z" fill="#C3C3C3"/>
<path d="M26.921 93.2557L24.4272 91.604C24.3058 92.1235 24.2379 92.6069 24.2333 93.061L23.854 92.8955C23.8819 92.4283 23.9633 91.9251 24.078 91.3727L21.7637 89.8399C21.3001 90.0755 20.8796 90.354 20.5055 90.6919L20.1898 90.4114C20.5572 90.0834 20.971 89.8147 21.4246 89.6152L18.9607 87.9833L19.1747 87.668L22.9853 90.1919L23.8416 88.9308L20.5397 86.7438L20.7538 86.4285L24.0557 88.6155L24.9186 87.3445L20.7688 84.596L20.9963 84.261L29.635 89.9828L29.4075 90.3177L25.2578 87.5692L24.3948 88.8401L27.6568 91.0007L27.4427 91.316L24.1808 89.1554L23.3245 90.4165L27.1351 92.9405L26.921 93.2557ZM25.6562 86.8333L25.3438 86.5692C25.6345 86.2475 25.9418 85.9654 26.2422 85.7359L22.1623 83.0336L22.3897 82.6986L26.1604 85.1961C26.2381 83.5907 25.3434 81.884 23.5029 80.0794L23.8898 79.8929C25.8132 81.8524 26.6909 83.6907 26.5096 85.4274L26.6093 85.4934C27.1632 85.1462 27.7601 84.9273 28.39 84.8303C29.4198 84.6554 30.8415 84.9258 32.665 85.6479L32.5872 86.082C30.9002 85.3931 29.5452 85.1098 28.5055 85.2353C27.9656 85.3063 27.4622 85.4727 26.9884 85.7445L30.5596 88.1099L30.3321 88.4448L26.6113 85.9804C26.2708 86.2262 25.9569 86.5182 25.6562 86.8333Z" fill="#C3C3C3"/>
<path d="M17.5857 84.7015L14.4268 81.0949L12.1377 83.0507L11.8706 82.7457L14.1596 80.7899L10.9929 77.1743L11.2926 76.9182L14.0743 80.0942C15.1957 78.0381 15.6783 75.6336 15.5145 72.8718L15.9417 72.8519C16.0606 75.7619 15.5276 78.2721 14.3337 80.3902L14.4594 80.5338L20.1094 75.7063L20.3765 76.0114L14.7266 80.8388L14.8444 80.9734C17.4037 79.9788 20.0554 79.8151 22.7995 80.4821L22.6684 80.8764C20.0937 80.2215 17.5722 80.3525 15.1116 81.2784L17.8855 84.4454L17.5857 84.7015ZM10.6484 81.2959C10.7281 80.2083 10.8699 79.3185 11.0569 78.6254L11.4416 78.7202C11.234 79.4623 11.0922 80.3521 11.015 81.4062L10.6484 81.2959Z" fill="#C3C3C3"/>
<path d="M4.816 66.2867L6.91723 65.2921L7.09372 65.6558L5.34992 66.4812L9.21203 74.4402L10.9558 73.6148L11.1323 73.9785L9.0311 74.9732L6.09299 68.9183C5.09692 68.7321 4.08304 68.6464 3.03487 68.6821L2.99354 68.2675C4.1058 68.2541 5.0768 68.3338 5.89054 68.5011L4.816 66.2867ZM9.97754 72.6966L7.19515 66.9627L7.53092 66.8038C8.39771 67.3275 9.27873 67.9628 10.1956 68.6996L11.0296 68.3048L8.97398 64.0685L9.34224 63.8942L11.3979 68.1305L13.4991 67.1358C13.9865 66.9051 14.355 67.0332 14.5834 67.5039L15.2375 68.8518L14.9216 69.1066C14.7295 68.7108 14.5327 68.2777 14.3043 67.807C14.1434 67.4754 13.887 67.3863 13.5404 67.5504L11.5692 68.4835L13.7598 72.9979L13.3915 73.1722L11.2009 68.6578L10.1828 69.1397C9.10184 68.257 8.30612 67.6602 7.79566 67.3493L10.3133 72.5377L9.97754 72.6966ZM6.26522 74.9275C6.5935 74.259 6.9915 73.5971 7.45404 72.9309L7.77743 73.1856C7.29322 73.862 6.90041 74.5347 6.57778 75.1873L6.26522 74.9275ZM4.79891 72.3723C5.18564 71.742 5.62606 71.1126 6.12539 70.4947L6.45442 70.7336C5.91696 71.3827 5.47653 72.0121 5.1223 72.6271L4.79891 72.3723Z" fill="#C3C3C3"/>
<path d="M0.755884 53.9141L2.89541 53.5334L2.9678 53.9304L1.23017 54.2395L2.16909 59.3881L3.90672 59.079L3.9791 59.476L1.83958 59.8566L1.3286 57.0546C0.91679 57.2725 0.544698 57.5075 0.224145 57.7573L0.0765751 57.3497C0.425027 57.1189 0.811069 56.8935 1.25409 56.646L0.755884 53.9141ZM3.94923 58.7099L3.14018 54.2734L3.50662 54.2082L4.31567 58.6447L3.94923 58.7099ZM6.20233 59.1528L5.07179 52.9534L5.47369 52.8819L5.85693 54.9834L9.56859 54.3231C9.88774 54.2663 10.0256 54.0851 9.96807 53.7699L9.84245 53.0811C9.79987 52.8476 9.72278 52.6926 9.63483 52.6118C9.46861 52.4364 8.87993 52.4206 7.86666 52.5527L7.92643 52.1443C8.91818 52.0281 9.54232 52.0376 9.80098 52.1844C10.0081 52.3163 10.1495 52.5564 10.2155 52.9183L10.3773 53.8056C10.4199 54.0391 10.3712 54.2406 10.2549 54.4059C10.1386 54.5713 9.96013 54.6633 9.73554 54.7032L5.92931 55.3804L6.19758 56.8514C7.53426 56.6859 8.55582 56.7332 9.26226 56.9933C10.0224 57.2799 10.7369 57.8519 11.3961 58.723L11.1217 59.025C10.5107 58.2176 9.84983 57.6722 9.16277 57.3846C8.49605 57.1416 7.53572 57.0955 6.26996 57.2483L6.60423 59.0813L6.20233 59.1528ZM1.89652 63.7157L1.32593 60.5868L1.65691 60.5279C2.87494 60.6488 4.13151 60.8471 5.43419 61.0975C6.26605 60.2383 7.11992 59.7007 7.99795 59.4963C8.48472 59.4218 8.86276 59.4871 9.14175 59.6786C9.45929 59.9475 9.68938 60.4731 9.84172 61.2415L9.45355 61.4552C9.44834 61.3597 9.44738 61.2876 9.43461 61.2175C9.28844 60.6168 9.12148 60.2366 8.92949 60.0538C8.72781 59.8848 8.4486 59.826 8.07034 59.8933C7.26654 60.0363 6.42448 60.5718 5.56781 61.4956C4.16205 61.2153 2.9076 61.0287 1.79265 60.9377L2.21421 63.2493L11.978 61.5124L12.0504 61.9094L1.89652 63.7157Z" fill="#C3C3C3"/>
</g>
<defs>
<clipPath id="clip0_180_1095">
<rect width="100" height="100" fill="white"/>
</clipPath>
</defs>
</svg>
